<svg width="91" height="83" viewBox="0 0 91 83" fill="none" xmlns="http://www.w3.org/2000/svg">
<path d="M0 67.8333V57.3115C0 55.1628 0.537153 53.1722 1.61146 51.3396C2.68576 49.5069 4.17083 48.1167 6.06667 47.1687C6.95139 46.7264 7.80451 46.3156 8.62604 45.9365C9.51076 45.5573 10.4271 45.2097 11.375 44.8937V67.8333H0ZM15.1667 41.2917C12.0069 41.2917 9.32118 40.1858 7.10938 37.974C4.89757 35.7622 3.79167 33.0764 3.79167 29.9167C3.79167 26.7569 4.89757 24.0712 7.10938 21.8594C9.32118 19.6476 12.0069 18.5417 15.1667 18.5417C18.3264 18.5417 21.0122 19.6476 23.224 21.8594C25.4358 24.0712 26.5417 26.7569 26.5417 29.9167C26.5417 33.0764 25.4358 35.7622 23.224 37.974C21.0122 40.1858 18.3264 41.2917 15.1667 41.2917ZM15.1667 33.7083C16.241 33.7083 17.1257 33.3608 17.8208 32.6656C18.5792 31.9073 18.9583 30.991 18.9583 29.9167C18.9583 28.8424 18.5792 27.9576 17.8208 27.2625C17.1257 26.5042 16.241 26.125 15.1667 26.125C14.0924 26.125 13.176 26.5042 12.4177 27.2625C11.7226 27.9576 11.375 28.8424 11.375 29.9167C11.375 30.991 11.7226 31.9073 12.4177 32.6656C13.176 33.3608 14.0924 33.7083 15.1667 33.7083ZM15.1667 67.8333V57.2167C15.1667 55.068 15.7038 53.109 16.7781 51.3396C17.9156 49.5069 19.4007 48.1167 21.2333 47.1687C25.1514 45.2097 29.1326 43.7562 33.1771 42.8083C37.2215 41.7972 41.3292 41.2917 45.5 41.2917C49.6708 41.2917 53.7785 41.7972 57.8229 42.8083C61.8674 43.7562 65.8486 45.2097 69.7667 47.1687C71.5993 48.1167 73.0528 49.5069 74.1271 51.3396C75.2646 53.109 75.8333 55.068 75.8333 57.2167V67.8333H15.1667ZM22.75 60.25H68.25V57.2167C68.25 56.5215 68.0604 55.8896 67.6813 55.3208C67.3653 54.7521 66.9229 54.3097 66.3542 53.9937C62.9417 52.2875 59.4976 51.0236 56.0219 50.2021C52.5462 49.3174 49.0389 48.875 45.5 48.875C41.9611 48.875 38.4538 49.3174 34.9781 50.2021C31.5024 51.0236 28.0583 52.2875 24.6458 53.9937C24.0771 54.3097 23.6031 54.7521 23.224 55.3208C22.908 55.8896 22.75 56.5215 22.75 57.2167V60.25ZM45.5 37.5C41.3292 37.5 37.7587 36.0149 34.7885 33.0448C31.8184 30.0746 30.3333 26.5042 30.3333 22.3333C30.3333 18.1625 31.8184 14.592 34.7885 11.6219C37.7587 8.65173 41.3292 7.16666 45.5 7.16666C49.6708 7.16666 53.2413 8.65173 56.2115 11.6219C59.1816 14.592 60.6667 18.1625 60.6667 22.3333C60.6667 26.5042 59.1816 30.0746 56.2115 33.0448C53.2413 36.0149 49.6708 37.5 45.5 37.5ZM45.5 29.9167C47.5854 29.9167 49.3549 29.1899 50.8083 27.7365C52.325 26.2198 53.0833 24.4187 53.0833 22.3333C53.0833 20.2479 52.325 18.4785 50.8083 17.025C49.3549 15.5083 47.5854 14.75 45.5 14.75C43.4146 14.75 41.6135 15.5083 40.0969 17.025C38.6434 18.4785 37.9167 20.2479 37.9167 22.3333C37.9167 24.4187 38.6434 26.2198 40.0969 27.7365C41.6135 29.1899 43.4146 29.9167 45.5 29.9167ZM75.8333 41.2917C72.6736 41.2917 69.9879 40.1858 67.776 37.974C65.5642 35.7622 64.4583 33.0764 64.4583 29.9167C64.4583 26.7569 65.5642 24.0712 67.776 21.8594C69.9879 19.6476 72.6736 18.5417 75.8333 18.5417C78.9931 18.5417 81.6788 19.6476 83.8906 21.8594C86.1024 24.0712 87.2083 26.7569 87.2083 29.9167C87.2083 33.0764 86.1024 35.7622 83.8906 37.974C81.6788 40.1858 78.9931 41.2917 75.8333 41.2917ZM75.8333 33.7083C76.9076 33.7083 77.7924 33.3608 78.4875 32.6656C79.2458 31.9073 79.625 30.991 79.625 29.9167C79.625 28.8424 79.2458 27.9576 78.4875 27.2625C77.7924 26.5042 76.9076 26.125 75.8333 26.125C74.759 26.125 73.8427 26.5042 73.0844 27.2625C72.3892 27.9576 72.0417 28.8424 72.0417 29.9167C72.0417 30.991 72.3892 31.9073 73.0844 32.6656C73.8427 33.3608 74.759 33.7083 75.8333 33.7083ZM79.625 67.8333V44.8937C80.5729 45.2097 81.4576 45.5573 82.2792 45.9365C83.1639 46.3156 84.0486 46.7264 84.9333 47.1687C86.8292 48.1167 88.3142 49.5069 89.3885 51.3396C90.4629 53.1722 91 55.1628 91 57.3115V67.8333H79.625Z" fill="white"/>
</svg>
