<svg width="91" height="61" viewBox="0 0 91 61" fill="none" xmlns="http://www.w3.org/2000/svg">
<path d="M0 60.8333V50.3115C0 48.1628 0.537153 46.1722 1.61146 44.3396C2.68576 42.5069 4.17083 41.1167 6.06667 40.1687C6.95139 39.7264 7.80451 39.3156 8.62604 38.9365C9.51076 38.5573 10.4271 38.2097 11.375 37.8937V60.8333H0ZM15.1667 34.2917C12.0069 34.2917 9.32118 33.1858 7.10938 30.974C4.89757 28.7622 3.79167 26.0764 3.79167 22.9167C3.79167 19.7569 4.89757 17.0712 7.10938 14.8594C9.32118 12.6476 12.0069 11.5417 15.1667 11.5417C18.3264 11.5417 21.0122 12.6476 23.224 14.8594C25.4358 17.0712 26.5417 19.7569 26.5417 22.9167C26.5417 26.0764 25.4358 28.7622 23.224 30.974C21.0122 33.1858 18.3264 34.2917 15.1667 34.2917ZM15.1667 26.7083C16.241 26.7083 17.1257 26.3608 17.8208 25.6656C18.5792 24.9073 18.9583 23.991 18.9583 22.9167C18.9583 21.8424 18.5792 20.9576 17.8208 20.2625C17.1257 19.5042 16.241 19.125 15.1667 19.125C14.0924 19.125 13.176 19.5042 12.4177 20.2625C11.7226 20.9576 11.375 21.8424 11.375 22.9167C11.375 23.991 11.7226 24.9073 12.4177 25.6656C13.176 26.3608 14.0924 26.7083 15.1667 26.7083ZM15.1667 60.8333V50.2167C15.1667 48.068 15.7038 46.109 16.7781 44.3396C17.9156 42.5069 19.4007 41.1167 21.2333 40.1687C25.1514 38.2097 29.1326 36.7562 33.1771 35.8083C37.2215 34.7972 41.3292 34.2917 45.5 34.2917C49.6708 34.2917 53.7785 34.7972 57.8229 35.8083C61.8674 36.7562 65.8486 38.2097 69.7667 40.1687C71.5993 41.1167 73.0528 42.5069 74.1271 44.3396C75.2646 46.109 75.8333 48.068 75.8333 50.2167V60.8333H15.1667ZM22.75 53.25H68.25V50.2167C68.25 49.5215 68.0604 48.8896 67.6813 48.3208C67.3653 47.7521 66.9229 47.3097 66.3542 46.9937C62.9417 45.2875 59.4976 44.0236 56.0219 43.2021C52.5462 42.3174 49.0389 41.875 45.5 41.875C41.9611 41.875 38.4538 42.3174 34.9781 43.2021C31.5024 44.0236 28.0583 45.2875 24.6458 46.9937C24.0771 47.3097 23.6031 47.7521 23.224 48.3208C22.908 48.8896 22.75 49.5215 22.75 50.2167V53.25ZM45.5 30.5C41.3292 30.5 37.7587 29.0149 34.7885 26.0448C31.8184 23.0746 30.3333 19.5042 30.3333 15.3333C30.3333 11.1625 31.8184 7.59201 34.7885 4.62187C37.7587 1.65173 41.3292 0.166663 45.5 0.166663C49.6708 0.166663 53.2413 1.65173 56.2115 4.62187C59.1816 7.59201 60.6667 11.1625 60.6667 15.3333C60.6667 19.5042 59.1816 23.0746 56.2115 26.0448C53.2413 29.0149 49.6708 30.5 45.5 30.5ZM45.5 22.9167C47.5854 22.9167 49.3549 22.1899 50.8083 20.7365C52.325 19.2198 53.0833 17.4187 53.0833 15.3333C53.0833 13.2479 52.325 11.4785 50.8083 10.025C49.3549 8.50833 47.5854 7.74999 45.5 7.74999C43.4146 7.74999 41.6135 8.50833 40.0969 10.025C38.6434 11.4785 37.9167 13.2479 37.9167 15.3333C37.9167 17.4187 38.6434 19.2198 40.0969 20.7365C41.6135 22.1899 43.4146 22.9167 45.5 22.9167ZM75.8333 34.2917C72.6736 34.2917 69.9879 33.1858 67.776 30.974C65.5642 28.7622 64.4583 26.0764 64.4583 22.9167C64.4583 19.7569 65.5642 17.0712 67.776 14.8594C69.9879 12.6476 72.6736 11.5417 75.8333 11.5417C78.9931 11.5417 81.6788 12.6476 83.8906 14.8594C86.1024 17.0712 87.2083 19.7569 87.2083 22.9167C87.2083 26.0764 86.1024 28.7622 83.8906 30.974C81.6788 33.1858 78.9931 34.2917 75.8333 34.2917ZM75.8333 26.7083C76.9076 26.7083 77.7924 26.3608 78.4875 25.6656C79.2458 24.9073 79.625 23.991 79.625 22.9167C79.625 21.8424 79.2458 20.9576 78.4875 20.2625C77.7924 19.5042 76.9076 19.125 75.8333 19.125C74.759 19.125 73.8427 19.5042 73.0844 20.2625C72.3892 20.9576 72.0417 21.8424 72.0417 22.9167C72.0417 23.991 72.3892 24.9073 73.0844 25.6656C73.8427 26.3608 74.759 26.7083 75.8333 26.7083ZM79.625 60.8333V37.8937C80.5729 38.2097 81.4576 38.5573 82.2792 38.9365C83.1639 39.3156 84.0486 39.7264 84.9333 40.1687C86.8292 41.1167 88.3142 42.5069 89.3885 44.3396C90.4629 46.1722 91 48.1628 91 50.3115V60.8333H79.625Z" fill="white"/>
</svg>
