<svg width="54" height="60" viewBox="0 0 54 60" fill="none" xmlns="http://www.w3.org/2000/svg">
<path d="M18.25 43.125C16.2083 43.125 14.4826 42.4201 13.0729 41.0104C11.6632 39.6007 10.9583 37.875 10.9583 35.8333C10.9583 33.7917 11.6632 32.066 13.0729 30.6562C14.4826 29.2465 16.2083 28.5417 18.25 28.5417C20.2917 28.5417 22.0174 29.2465 23.4271 30.6562C24.8368 32.066 25.5417 33.7917 25.5417 35.8333C25.5417 37.875 24.8368 39.6007 23.4271 41.0104C22.0174 42.4201 20.2917 43.125 18.25 43.125ZM6.58333 59.1667C4.97917 59.1667 3.6059 58.5955 2.46354 57.4531C1.32118 56.3108 0.75 54.9375 0.75 53.3333V12.5C0.75 10.8958 1.32118 9.52257 2.46354 8.38021C3.6059 7.23785 4.97917 6.66667 6.58333 6.66667H9.5V0.833333H15.3333V6.66667H38.6667V0.833333H44.5V6.66667H47.4167C49.0208 6.66667 50.3941 7.23785 51.5365 8.38021C52.6788 9.52257 53.25 10.8958 53.25 12.5V53.3333C53.25 54.9375 52.6788 56.3108 51.5365 57.4531C50.3941 58.5955 49.0208 59.1667 47.4167 59.1667H6.58333ZM6.58333 53.3333H47.4167V24.1667H6.58333V53.3333Z" fill="white"/>
</svg>
