<svg width="70" height="70" viewBox="0 0 70 70" fill="none" xmlns="http://www.w3.org/2000/svg">
<path d="M26.25 48.125C24.2083 48.125 22.4826 47.4201 21.0729 46.0104C19.6632 44.6007 18.9583 42.875 18.9583 40.8333C18.9583 38.7917 19.6632 37.066 21.0729 35.6562C22.4826 34.2465 24.2083 33.5417 26.25 33.5417C28.2917 33.5417 30.0174 34.2465 31.4271 35.6562C32.8368 37.066 33.5417 38.7917 33.5417 40.8333C33.5417 42.875 32.8368 44.6007 31.4271 46.0104C30.0174 47.4201 28.2917 48.125 26.25 48.125ZM14.5833 64.1667C12.9792 64.1667 11.6059 63.5955 10.4635 62.4531C9.32118 61.3108 8.75 59.9375 8.75 58.3333V17.5C8.75 15.8958 9.32118 14.5226 10.4635 13.3802C11.6059 12.2378 12.9792 11.6667 14.5833 11.6667H17.5V5.83333H23.3333V11.6667H46.6667V5.83333H52.5V11.6667H55.4167C57.0208 11.6667 58.3941 12.2378 59.5365 13.3802C60.6788 14.5226 61.25 15.8958 61.25 17.5V58.3333C61.25 59.9375 60.6788 61.3108 59.5365 62.4531C58.3941 63.5955 57.0208 64.1667 55.4167 64.1667H14.5833ZM14.5833 58.3333H55.4167V29.1667H14.5833V58.3333Z" fill="white"/>
</svg>
